<?xml version="1.0" encoding="UTF-8" standalone="no"?>
<svg
   viewBox="0 0 700 700"
   version="1.1"
   id="svg44"
   sodipodi:docname="logo.svg"
   inkscape:version="1.2.2 (b0a84865, 2022-12-01)"
   width="700"
   height="700"
   xmlns:inkscape="http://www.inkscape.org/namespaces/inkscape"
   xmlns:sodipodi="http://sodipodi.sourceforge.net/DTD/sodipodi-0.dtd"
   xmlns="http://www.w3.org/2000/svg"
   xmlns:svg="http://www.w3.org/2000/svg">
  <defs
     id="defs48" />
  <sodipodi:namedview
     id="namedview46"
     pagecolor="#ffffff"
     bordercolor="#000000"
     borderopacity="0.25"
     inkscape:showpageshadow="2"
     inkscape:pageopacity="0.0"
     inkscape:pagecheckerboard="0"
     inkscape:deskcolor="#d1d1d1"
     showgrid="false"
     inkscape:zoom="0.88506152"
     inkscape:cx="324.27124"
     inkscape:cy="351.388"
     inkscape:window-width="1470"
     inkscape:window-height="920"
     inkscape:window-x="0"
     inkscape:window-y="36"
     inkscape:window-maximized="0"
     inkscape:current-layer="svg44" />
  <!--! Font Awesome Pro 6.2.1 by @fontawesome - https://fontawesome.com License - https://fontawesome.com/license (Commercial License) Copyright 2022 Fonticons, Inc. -->
  <path
     d="m 147.05291,418.23021 19.6745,8.81961 c -23.08023,27.46288 -35.87542,62.2935 -35.87542,98.16888 0,0.3392 0.0812,44.16579 0.0812,44.16579 h 65.12932 v -43.41955 c 0,-33.58227 18.99606,-64.45087 49.02338,-79.55274 L 296.823,414.70239 c 17.97841,-8.98922 29.51172,-27.47645 29.51172,-47.66652 v -79.71555 l -20.85494,12.21173 c -7.0014,3.63638 -12.02178,9.87794 -13.9214,17.34069 l -10.17645,34.05722 c -3.05292,10.34605 -10.85486,18.83321 -20.86851,22.72738 l -14.27417,5.7667 c -4.20628,1.76391 -8.68388,2.57801 -13.16156,2.57801 -4.91997,0 -9.85484,-1.01957 -14.4641,-3.05838 l -45.10197,-20.00824 c -12.72737,-5.83452 -21.03134,-18.58899 -21.03134,-32.56466 V 173.85966 c 0,-6.95394 2.88333,-13.73145 7.80192,-18.83325 l 10.00687,-10.00683 -15.7735,-31.54023 c -1.35688,-2.5509 -2.03529,-5.42745 -2.03529,-8.30399 0,-7.462727 5.94304,-13.405792 13.40577,-13.405792 H 308.3564 c 117.70768,0 211.80593,95.495872 211.80593,213.162812 v 264.45211 h 65.21072 l -0.0847,-264.45211 C 586.54004,151.47144 461.84455,26.640285 308.38363,26.640285 H 165.88614 c -43.41955,0 -78.53508,35.115565 -78.53508,78.535075 0,11.5333 2.374497,22.90377 6.953898,33.40591 -4.579401,11.26194 -6.953898,23.20232 -6.953898,35.27839 v 152.51111 c 0,39.75602 23.40583,75.8485 59.70185,91.85944 z m 49.0098,-212.48434 c 0,14.92547 12.04214,27.13719 27.13721,27.13719 14.92548,0 27.13719,-12.21172 27.13719,-27.13719 0,-14.92547 -12.21171,-27.13723 -27.13719,-27.13723 -15.08829,0 -27.13721,12.21176 -27.13721,27.13723 z M 575.82086,612.80403 H 118.69455 c -16.75725,0 -31.34349,14.5184 -31.34349,31.34346 0,16.82508 14.58624,33.78584 31.34349,33.78584 h 457.12631 c 18.04623,0 32.56466,-14.51841 32.56466,-32.56465 0,-18.04625 -14.51843,-32.56465 -32.56466,-32.56465 z"
     id="path42"
     style="fill:#00ff00;stroke-width:1.35686" />
</svg>
